<svg xmlns="http://www.w3.org/2000/svg" viewBox="0 0 84.34 55.47"><g id="Layer_2" data-name="Layer 2"><g id="avatar"><path d="M0,27.73V55.47H84.34V0H0Zm78.23,0V49.36H6.11V6.11H78.23Z"/><path d="M18.5,12.93c.46.58,2.4,3.25,4.29,5.89s4.72,6.63,6.32,8.83l6.38,8.89c1.93,2.7,3.65,5,3.8,5.21s.24-6.5.24-14.81V11.86H17.7l.8,1.08Z"/><path d="M45.41,26.89c0,8.25.09,15,.24,15s.4-.31.64-.71,2.91-4.14,6-8.34C61,20.69,67.18,12.11,67.18,12s-4.91-.12-10.89-.12H45.41Z"/><path d="M68.54,21.16c-1.84,2.58-6.23,8.65-9.75,13.56l-6.41,8.89,9.75.09c5.34,0,9.78,0,9.85,0S72,37.47,72,30l-.09-13.53Z"/><path d="M13.18,30.29V43.85H23c7.85,0,9.78-.09,9.57-.4s-2.3-3.13-4.72-6.5C21.61,28.2,13.79,17.38,13.46,17,13.3,16.86,13.18,22.26,13.18,30.29Z"/></g></g></svg>
