<!-- Generated by IcoMoon.io -->
<svg version="1.1" xmlns="http://www.w3.org/2000/svg" width="98" height="64" viewBox="0 0 98 64">
<title>logo</title>
<path d="M11.606 37.319c0 0.702-0.162 1.35-0.486 1.944s-0.81 1.080-1.566 1.458v0.054c0.378 0.162 0.756 0.323 1.080 0.54s0.594 0.486 0.863 0.756c0.216 0.27 0.432 0.648 0.54 0.972 0.108 0.378 0.216 0.756 0.216 1.242 0 0.378-0.054 0.81-0.162 1.242s-0.323 0.863-0.648 1.296c-0.323 0.432-0.756 0.81-1.242 1.188-0.54 0.378-1.188 0.648-1.998 0.863-0.216 0.054-0.432 0.108-0.648 0.108-0.216 0.054-0.486 0.054-0.81 0.108-0.27 0.054-0.594 0.054-0.972 0.054s-0.756 0-1.188 0h-4.698v-16.092h5.616c1.188 0 2.16 0.108 2.915 0.378 0.54 0.162 1.026 0.432 1.404 0.702s0.756 0.594 0.972 0.972c0.27 0.323 0.432 0.702 0.594 1.134 0.162 0.323 0.216 0.702 0.216 1.080zM5.558 39.695c0.81 0 1.404-0.054 1.782-0.217 0.432-0.162 0.756-0.432 0.972-0.756 0.162-0.323 0.27-0.702 0.27-1.080 0-0.432-0.108-0.81-0.323-1.134s-0.594-0.594-1.134-0.756c-0.216-0.054-0.486-0.108-0.756-0.162s-0.648-0.054-1.080-0.054h-2.429v4.158h2.7zM2.912 42.125v4.536h1.944c0.54 0 0.972 0 1.35-0.054s0.702-0.054 0.972-0.162c0.432-0.108 0.756-0.217 1.026-0.378s0.486-0.323 0.648-0.486c0.162-0.162 0.27-0.378 0.378-0.648 0.054-0.217 0.108-0.486 0.108-0.702 0-0.432-0.108-0.863-0.378-1.188s-0.648-0.594-1.188-0.756c-0.216-0.054-0.486-0.108-0.81-0.162s-0.702-0.054-1.188-0.054h-2.862z"></path>
<path d="M27.481 37.859c0 1.134-0.323 2.052-0.918 2.862-0.648 0.756-1.566 1.35-2.862 1.728v0.054l4.752 6.642h-3.564l-4.374-6.21h-1.998v6.21h-2.97v-16.092h4.914c0.81 0 1.566 0.054 2.269 0.162s1.296 0.217 1.782 0.432c0.972 0.378 1.674 0.918 2.214 1.62 0.54 0.648 0.756 1.566 0.756 2.592zM19.976 40.451c0.648 0 1.242-0.054 1.728-0.108s0.863-0.162 1.188-0.27c0.594-0.217 1.026-0.54 1.242-0.918s0.323-0.81 0.323-1.35c0-0.432-0.108-0.81-0.27-1.134s-0.486-0.594-0.918-0.81c-0.27-0.108-0.648-0.217-1.080-0.27s-0.972-0.108-1.566-0.108h-2.106v4.914h1.458z"></path>
<path d="M32.287 49.145v-16.092h2.97v16.092h-2.97z"></path>
<path d="M44.599 36.348c0.756 1.134 1.35 1.944 1.62 2.429h0.054c0.432-0.648 0.972-1.458 1.62-2.429l2.322-3.348h3.402l-5.616 7.938 5.832 8.208h-3.348l-2.538-3.618c-0.594-0.863-1.188-1.728-1.728-2.484h-0.054c-0.54 0.81-1.134 1.674-1.728 2.484l-2.538 3.618h-3.348l5.832-8.208-5.507-7.884h3.402l2.322 3.294z"></path>
<path d="M63.229 49.145h-2.97v-13.662h-5.184v-2.484h13.337v2.484h-5.184v13.662z"></path>
<path d="M85.099 41.099c0 1.242-0.162 2.376-0.54 3.402-0.323 1.026-0.863 1.89-1.512 2.646s-1.512 1.296-2.484 1.728c-0.972 0.432-2.106 0.594-3.348 0.594s-2.376-0.217-3.348-0.594c-0.972-0.432-1.782-0.972-2.484-1.728-0.648-0.756-1.188-1.62-1.512-2.646s-0.54-2.16-0.54-3.402c0-1.242 0.162-2.376 0.54-3.402 0.323-1.026 0.863-1.89 1.512-2.646s1.512-1.296 2.484-1.728c0.972-0.432 2.106-0.594 3.348-0.594s2.376 0.217 3.348 0.594c0.972 0.432 1.782 0.972 2.484 1.728 0.648 0.756 1.188 1.62 1.512 2.646 0.378 1.026 0.54 2.16 0.54 3.402zM82.021 41.099c0-0.972-0.108-1.836-0.378-2.592-0.216-0.756-0.594-1.35-1.026-1.836s-0.918-0.863-1.512-1.080c-0.594-0.217-1.242-0.378-1.944-0.378s-1.35 0.108-1.944 0.378c-0.594 0.217-1.080 0.594-1.512 1.080s-0.756 1.080-1.026 1.836c-0.216 0.756-0.378 1.566-0.378 2.592 0 0.972 0.108 1.836 0.378 2.592 0.216 0.756 0.594 1.35 1.026 1.836s0.918 0.863 1.512 1.080c0.594 0.27 1.242 0.378 1.944 0.378s1.35-0.108 1.944-0.378c0.594-0.27 1.080-0.594 1.512-1.080s0.756-1.080 1.026-1.836c0.27-0.756 0.378-1.62 0.378-2.592z"></path>
<path d="M90.552 33.053v13.662h7.559v2.429h-10.476v-16.092h2.915z"></path>
<path d="M44.869 22.199v-13.5h-9.611z"></path>
<path d="M32.936 10.59v12.42h8.856z"></path>
<path d="M47.731 21.929v-13.446h9.665z"></path>
<path d="M59.665 10.374v12.366h-8.856z"></path>
<path d="M27.212 3.3v25.217h37.853v-25.217h-37.853zM62.473 25.817h-32.561v-19.764h32.507v19.764z"></path>
<path d="M3.182 60.484h-1.134v-5.13h-1.944v-0.918h5.021v0.918h-1.944v5.13z"></path>
<path d="M15.494 59.513h2.97v0.918h-4.104v-6.047h3.942v0.918h-2.809v1.566h2.429v0.918h-2.429v1.728z"></path>
<path d="M29.587 55.625c0.27 0.432 0.486 0.756 0.594 0.918v0c0.162-0.27 0.378-0.54 0.594-0.918l0.863-1.242h1.296l-2.106 2.97 2.214 3.078h-1.188l-0.972-1.35c-0.216-0.323-0.432-0.648-0.648-0.918v0c-0.216 0.323-0.432 0.648-0.648 0.918l-0.972 1.404h-1.242l2.214-3.078-2.106-2.97h1.296l0.81 1.188z"></path>
<path d="M44.761 60.484h-1.134v-5.13h-1.944v-0.918h5.021v0.918h-1.944v5.13z"></path>
<path d="M55.939 60.484v-6.047h1.134v6.047h-1.134z"></path>
<path d="M67.981 54.383v5.13h2.862v0.918h-3.942v-6.047h1.080z"></path>
<path d="M81.372 59.513h2.97v0.918h-4.104v-6.047h3.942v0.918h-2.808v1.566h2.429v0.918h-2.429v1.728z"></path>
<path d="M96.87 58.703c0-0.162-0.054-0.27-0.108-0.378s-0.162-0.162-0.323-0.217c-0.108-0.054-0.27-0.108-0.432-0.162s-0.323-0.054-0.486-0.108c-0.216-0.054-0.486-0.108-0.702-0.162s-0.378-0.162-0.594-0.27c-0.162-0.108-0.27-0.27-0.378-0.486s-0.162-0.432-0.162-0.702c0-0.323 0.054-0.594 0.162-0.863s0.27-0.432 0.432-0.594c0.216-0.162 0.432-0.27 0.702-0.323s0.54-0.108 0.863-0.108c0.323 0 0.648 0.054 0.972 0.108s0.594 0.162 0.863 0.27v0.972c-0.323-0.108-0.594-0.217-0.918-0.27s-0.54-0.108-0.81-0.108c-0.378 0-0.648 0.054-0.863 0.217-0.216 0.108-0.323 0.323-0.323 0.594 0 0.162 0.054 0.27 0.108 0.378s0.162 0.162 0.27 0.27c0.108 0.054 0.216 0.108 0.378 0.162s0.323 0.054 0.486 0.108c0.27 0.054 0.486 0.108 0.756 0.162s0.432 0.162 0.648 0.323 0.323 0.27 0.432 0.486c0.108 0.217 0.162 0.486 0.162 0.81s-0.054 0.594-0.162 0.863c-0.108 0.217-0.27 0.432-0.54 0.594-0.216 0.162-0.486 0.27-0.81 0.323s-0.648 0.108-1.026 0.108c-0.323 0-0.648-0.054-0.972-0.108s-0.594-0.162-0.81-0.27v-0.918c0.323 0.108 0.594 0.217 0.863 0.27s0.594 0.108 0.863 0.108c0.162 0 0.323 0 0.54-0.054 0.162-0.054 0.323-0.054 0.432-0.162 0.108-0.054 0.216-0.162 0.323-0.27 0.162-0.27 0.162-0.378 0.162-0.594z"></path>
</svg>
