<svg xmlns="http://www.w3.org/2000/svg" viewBox="0 0 58.57 47.88"><title>print</title><g id="Layer_2" data-name="Layer 2"><g id="Layer_1-2" data-name="Layer 1"><path d="M56.57,7.42H47.19V2a2,2,0,0,0-2-2H13.38a2,2,0,0,0-2,2V7.42H2a2,2,0,0,0-2,2V30.37a2,2,0,0,0,2,2h9.65V45.88a2,2,0,0,0,2,2H44.92a2,2,0,0,0,2-2V32.37h9.65a2,2,0,0,0,2-2V9.42A2,2,0,0,0,56.57,7.42ZM15.38,4H43.19V7.42H15.38ZM42.92,43.88H15.65V23.46H42.92V43.88ZM54.57,28.37H46.92v-6.9a2,2,0,0,0-2-2H13.65a2,2,0,0,0-2,2v6.9H4V11.42H54.57ZM20.4,32.09H38.16a2,2,0,0,0,0-4H20.4a2,2,0,0,0,0,4Zm0,7.16H38.16a2,2,0,0,0,0-4H20.4a2,2,0,0,0,0,4Z"/></g></g></svg>