<svg xmlns="http://www.w3.org/2000/svg" viewBox="0 0 90 65.76"><title>scissors</title><g id="Layer_2" data-name="Layer 2"><g id="Layer_1-2" data-name="Layer 1"><path d="M14.48,25.23A112.16,112.16,0,0,1,32.22,31.7a6.28,6.28,0,0,0,.52,1.18,6.2,6.2,0,0,0-.52,1.18,112.41,112.41,0,0,1-17.75,6.47c-4.13,1-12.88,7.86-14,12.07-1.68,6.27,1.19,11.24,7.46,12.92s18.25-5.76,19.93-12c1.15-4.29.65-7.35-2.62-10.29l10.93-6.31C48.56,48.09,85,63.13,90,60L43.11,32.88,90,5.81C85,2.63,48.56,17.67,36.17,28.87L25.24,22.57c3.27-2.94,3.77-6,2.62-10.3C26.18,6,14.21-1.44,7.93.24S-1.21,6.89.47,13.16c1.13,4.21,9.88,11,14,12.07Zm23.7,5.37a2.28,2.28,0,1,1-2.28,2.28,2.27,2.27,0,0,1,2.28-2.28ZM19.39,44.34c4.22,1.13,5.82,3.92,4.7,8.14S13.15,62.88,8.94,61.75s-5.82-3.92-4.7-8.14,10.94-10.39,15.15-9.26Zm0-22.93c-4.21,1.12-14-5-15.15-9.26s.48-7,4.7-8.14,14,5.06,15.15,9.27S23.61,20.29,19.39,21.42Z"/></g></g></svg>