<svg xmlns="http://www.w3.org/2000/svg" viewBox="0 0 90 65.79"><title>scissors</title><path d="M14.48,25.26a112.16,112.16,0,0,1,17.74,6.47,6.28,6.28,0,0,0,.52,1.18,6.2,6.2,0,0,0-.52,1.18,112.41,112.41,0,0,1-17.75,6.47c-4.13,1-12.88,7.86-14,12.07C-1.21,58.9,1.66,63.87,7.93,65.55s18.25-5.76,19.93-12c1.15-4.29.65-7.35-2.62-10.29l10.93-6.31C48.56,48.12,85,63.16,90,60L43.11,32.91,90,5.79C85,2.61,48.56,17.65,36.17,28.85l-10.93-6.3c3.27-2.94,3.77-6,2.62-10.3C26.18,6,14.21-1.46,7.93.25S-1.21,6.92.47,13.19c1.13,4.21,9.88,11,14,12.07Zm23.7,5.37a2.28,2.28,0,1,1-2.28,2.28h0a2.27,2.27,0,0,1,2.26-2.28h0ZM19.39,44.37c4.22,1.13,5.82,3.92,4.7,8.14S13.15,62.91,8.94,61.79s-5.82-3.92-4.7-8.14,10.94-10.39,15.15-9.26Zm0-22.93c-4.21,1.12-14-5-15.15-9.26s.48-7,4.7-8.14,14,5.06,15.15,9.27-.48,7-4.7,8.14Z"/></svg>