<svg xmlns="http://www.w3.org/2000/svg" viewBox="0 0 65.79 90"><title>scissors-vertical</title><path d="M40.53,14.48a112.16,112.16,0,0,1-6.47,17.74,6.28,6.28,0,0,0-1.18.52,6.2,6.2,0,0,0-1.18-.52,112.41,112.41,0,0,1-6.47-17.75c-1-4.13-7.86-12.88-12.07-14C6.89-1.21,1.92,1.66.24,7.93S6,26.18,12.24,27.86c4.29,1.15,7.35.65,10.29-2.62l6.31,10.93C17.67,48.56,2.63,85,5.79,90L32.88,43.11,60,90c3.18-5-11.86-41.44-23.06-53.83l6.3-10.93c2.94,3.27,6,3.77,10.3,2.62,6.25-1.68,13.71-13.65,12-19.93S58.87-1.21,52.6.47c-4.21,1.13-11,9.88-12.07,14Zm-5.37,23.7a2.28,2.28,0,1,1-2.28-2.28h0a2.27,2.27,0,0,1,2.28,2.26h0ZM21.42,19.39c-1.13,4.22-3.92,5.82-8.14,4.7S2.88,13.15,4,8.94s3.92-5.82,8.14-4.7S22.53,15.18,21.4,19.39Zm22.93,0c-1.12-4.21,5-14,9.26-15.15s7,.48,8.14,4.7-5.06,14-9.27,15.15-7-.48-8.14-4.7Z"/></svg>