<svg xmlns="http://www.w3.org/2000/svg" viewBox="0 0 1497 220"><title>slipper-logo</title><g id="Layer_2" data-name="Layer 2"><g id="Layer_1-2" data-name="Layer 1"><path d="M0,68v68H142v34H0v50H200V85H57V51H200V0H0Z"/><path d="M239,110V220H440V170H297V0H239Z"/><path d="M479,110V220h58V0H479Z"/><path d="M579,110V220h58V136H780V0H579ZM722,68V85H637V51h85Z"/><path d="M818,110V220h58V136h143V0H818ZM961,68V85H876V51h85Z"/><path d="M1058,25.5V51h143V85h-95v51h93v34H1058v50h201V0H1058Z"/><path d="M1298,68v68l30,.2,30.1.3L1328,163.4l-30,26.9V220h59.8l41.3-37.3,41.4-37.4.3,37.4.2,37.3h56V0H1298Zm143,0V85h-85V51h85Z"/></g></g></svg>