<svg style="position:absolute"><symbol viewBox="0 0 84.34 55.47" id="avatar" xmlns="http://www.w3.org/2000/svg"><g data-name="Layer 2"><path d="M0 27.73v27.74h84.34V0H0zm78.23 0v21.63H6.11V6.11h72.12z"/><path d="M18.5 12.93c.46.58 2.4 3.25 4.29 5.89s4.72 6.63 6.32 8.83l6.38 8.89c1.93 2.7 3.65 5 3.8 5.21s.24-6.5.24-14.81V11.86H17.7l.8 1.08zM45.41 26.89c0 8.25.09 15 .24 15s.4-.31.64-.71 2.91-4.14 6-8.34C61 20.69 67.18 12.11 67.18 12s-4.91-.12-10.89-.12H45.41zM68.54 21.16c-1.84 2.58-6.23 8.65-9.75 13.56l-6.41 8.89 9.75.09h9.85c.07 0 .02-6.23.02-13.7l-.09-13.53zM13.18 30.29v13.56H23c7.85 0 9.78-.09 9.57-.4s-2.3-3.13-4.72-6.5C21.61 28.2 13.79 17.38 13.46 17c-.16-.14-.28 5.26-.28 13.29z"/></g></symbol><symbol viewBox="0 0 120.78 117.79" id="github" xmlns="http://www.w3.org/2000/svg"><defs><style>.bcls-1,.bcls-2{fill:#0f0c0d}.bcls-1{fill-rule:evenodd}</style></defs><g id="Layer_2" data-name="Layer 2"><g id="Layer_1-2" data-name="Layer 1"><path class="bcls-1" d="M60.39 0A60.39 60.39 0 0041.3 117.69c3 .56 4.13-1.31 4.13-2.91 0-1.44-.06-6.2-.08-11.24C28.54 107.19 25 96.42 25 96.42c-2.75-7-6.7-8.84-6.7-8.84-5.48-3.75.41-3.67.41-3.67 6.06.43 9.26 6.22 9.26 6.22 5.39 9.23 14.13 6.56 17.57 5 .54-3.9 2.11-6.57 3.83-8.08-13.37-1.5-27.52-6.68-27.52-29.82A23.37 23.37 0 0128.08 41c-.63-1.52-2.69-7.66.58-16 0 0 5.07-1.62 16.61 6.19a57.26 57.26 0 0130.24 0C87 23.42 92.11 25 92.11 25c3.29 8.32 1.22 14.46.59 16a23.32 23.32 0 016.21 16.21c0 23.19-14.13 28.3-27.57 29.8 2.17 1.87 4.1 5.55 4.1 11.18 0 8.08-.07 14.58-.07 16.57 0 1.61 1.09 3.49 4.15 2.9A60.4 60.4 0 0060.39 0z"/><path class="bcls-2" d="M22.87 86.7c-.13.3-.61.39-1 .18s-.68-.61-.54-.91.6-.39 1-.19.69.61.54.91zm-.74-.55M25.32 89.43c-.29.27-.85.14-1.23-.28a.92.92 0 01-.18-1.25c.3-.27.84-.14 1.24.28s.47 1 .17 1.25zm-.58-.62M27.7 92.91c-.37.26-1 0-1.35-.52s-.37-1.18 0-1.44 1 0 1.35.51.37 1.19 0 1.45zm0 0M31 96.27c-.33.37-1 .27-1.55-.23a1.16 1.16 0 01-.34-1.54c.34-.37 1-.26 1.56.23s.68 1.18.33 1.54zm0 0M35.46 98.22c-.15.47-.83.69-1.51.49s-1.13-.76-1-1.24.82-.7 1.51-.49 1.13.76 1 1.24zm0 0M40.4 98.58c0 .5-.56.91-1.28.92s-1.31-.39-1.31-.88.57-.91 1.29-.92 1.31.39 1.31.88zm0 0M45 97.8c.09.49-.41 1-1.13 1.12s-1.35-.17-1.44-.65.42-1 1.12-1.13 1.35.17 1.44.66zm0 0"/></g></g></symbol><symbol viewBox="0 0 98 64" id="logo" xmlns="http://www.w3.org/2000/svg"><path d="M11.606 37.319c0 .702-.162 1.35-.486 1.944s-.81 1.08-1.566 1.458v.054c.378.162.756.323 1.08.54s.594.486.863.756c.216.27.432.648.54.972.108.378.216.756.216 1.242 0 .378-.054.81-.162 1.242s-.323.863-.648 1.296c-.323.432-.756.81-1.242 1.188-.54.378-1.188.648-1.998.863-.216.054-.432.108-.648.108-.216.054-.486.054-.81.108-.27.054-.594.054-.972.054H-.113V33.052h5.616c1.188 0 2.16.108 2.915.378.54.162 1.026.432 1.404.702s.756.594.972.972c.27.323.432.702.594 1.134.162.323.216.702.216 1.08zm-6.048 2.376c.81 0 1.404-.054 1.782-.217.432-.162.756-.432.972-.756.162-.323.27-.702.27-1.08 0-.432-.108-.81-.323-1.134s-.594-.594-1.134-.756c-.216-.054-.486-.108-.756-.162s-.648-.054-1.08-.054H2.86v4.158h2.7zm-2.646 2.43v4.536h1.944c.54 0 .972 0 1.35-.054s.702-.054.972-.162c.432-.108.756-.217 1.026-.378s.486-.323.648-.486c.162-.162.27-.378.378-.648a3.17 3.17 0 00.108-.702c0-.432-.108-.863-.378-1.188s-.648-.594-1.188-.756c-.216-.054-.486-.108-.81-.162s-.702-.054-1.188-.054H2.912zM27.481 37.859c0 1.134-.323 2.052-.918 2.862-.648.756-1.566 1.35-2.862 1.728v.054l4.752 6.642h-3.564l-4.374-6.21h-1.998v6.21h-2.97V33.053h4.914c.81 0 1.566.054 2.269.162s1.296.217 1.782.432c.972.378 1.674.918 2.214 1.62.54.648.756 1.566.756 2.592zm-7.505 2.592c.648 0 1.242-.054 1.728-.108s.863-.162 1.188-.27c.594-.217 1.026-.54 1.242-.918s.323-.81.323-1.35c0-.432-.108-.81-.27-1.134s-.486-.594-.918-.81c-.27-.108-.648-.217-1.08-.27s-.972-.108-1.566-.108h-2.106v4.914h1.458zM32.287 49.145V33.053h2.97v16.092h-2.97zM44.599 36.348c.756 1.134 1.35 1.944 1.62 2.429h.054l1.62-2.429L50.215 33h3.402l-5.616 7.938 5.832 8.208h-3.348l-2.538-3.618c-.594-.863-1.188-1.728-1.728-2.484h-.054c-.54.81-1.134 1.674-1.728 2.484l-2.538 3.618h-3.348l5.832-8.208-5.507-7.884h3.402l2.322 3.294zM63.229 49.145h-2.97V35.483h-5.184v-2.484h13.337v2.484h-5.184v13.662zM85.099 41.099c0 1.242-.162 2.376-.54 3.402-.323 1.026-.863 1.89-1.512 2.646s-1.512 1.296-2.484 1.728c-.972.432-2.106.594-3.348.594s-2.376-.217-3.348-.594c-.972-.432-1.782-.972-2.484-1.728-.648-.756-1.188-1.62-1.512-2.646s-.54-2.16-.54-3.402.162-2.376.54-3.402c.323-1.026.863-1.89 1.512-2.646s1.512-1.296 2.484-1.728c.972-.432 2.106-.594 3.348-.594s2.376.217 3.348.594c.972.432 1.782.972 2.484 1.728.648.756 1.188 1.62 1.512 2.646.378 1.026.54 2.16.54 3.402zm-3.078 0c0-.972-.108-1.836-.378-2.592-.216-.756-.594-1.35-1.026-1.836s-.918-.863-1.512-1.08c-.594-.217-1.242-.378-1.944-.378s-1.35.108-1.944.378c-.594.217-1.08.594-1.512 1.08s-.756 1.08-1.026 1.836a9.057 9.057 0 00-.378 2.592c0 .972.108 1.836.378 2.592.216.756.594 1.35 1.026 1.836s.918.863 1.512 1.08c.594.27 1.242.378 1.944.378s1.35-.108 1.944-.378c.594-.27 1.08-.594 1.512-1.08s.756-1.08 1.026-1.836.378-1.62.378-2.592zM90.552 33.053v13.662h7.559v2.429H87.635V33.052h2.915zM44.869 22.199v-13.5h-9.611zM32.936 10.59v12.42h8.856zM47.731 21.929V8.483h9.665zM59.665 10.374V22.74h-8.856z"/><path d="M27.212 3.3v25.217h37.853V3.3H27.212zm35.261 22.517H29.912V6.053h32.507v19.764zM3.182 60.484H2.048v-5.13H.104v-.918h5.021v.918H3.181v5.13zM15.494 59.513h2.97v.918H14.36v-6.047h3.942v.918h-2.809v1.566h2.429v.918h-2.429v1.728zM29.587 55.625c.27.432.486.756.594.918.162-.27.378-.54.594-.918l.863-1.242h1.296l-2.106 2.97 2.214 3.078h-1.188l-.972-1.35c-.216-.323-.432-.648-.648-.918-.216.323-.432.648-.648.918l-.972 1.404h-1.242l2.214-3.078-2.106-2.97h1.296l.81 1.188zM44.761 60.484h-1.134v-5.13h-1.944v-.918h5.021v.918H44.76v5.13zM55.939 60.484v-6.047h1.134v6.047h-1.134zM67.981 54.383v5.13h2.862v.918h-3.942v-6.047h1.08zM81.372 59.513h2.97v.918h-4.104v-6.047h3.942v.918h-2.808v1.566h2.429v.918h-2.429v1.728zM96.87 58.703c0-.162-.054-.27-.108-.378s-.162-.162-.323-.217c-.108-.054-.27-.108-.432-.162s-.323-.054-.486-.108c-.216-.054-.486-.108-.702-.162s-.378-.162-.594-.27c-.162-.108-.27-.27-.378-.486s-.162-.432-.162-.702c0-.323.054-.594.162-.863s.27-.432.432-.594c.216-.162.432-.27.702-.323s.54-.108.863-.108c.323 0 .648.054.972.108s.594.162.863.27v.972c-.323-.108-.594-.217-.918-.27s-.54-.108-.81-.108c-.378 0-.648.054-.863.217-.216.108-.323.323-.323.594 0 .162.054.27.108.378s.162.162.27.27c.108.054.216.108.378.162s.323.054.486.108c.27.054.486.108.756.162s.432.162.648.323.323.27.432.486c.108.217.162.486.162.81s-.054.594-.162.863c-.108.217-.27.432-.54.594-.216.162-.486.27-.81.323s-.648.108-1.026.108c-.323 0-.648-.054-.972-.108s-.594-.162-.81-.27v-.918c.323.108.594.217.863.27s.594.108.863.108c.162 0 .323 0 .54-.054.162-.054.323-.054.432-.162.108-.054.216-.162.323-.27.162-.27.162-.378.162-.594z"/></symbol><symbol viewBox="0 0 58.57 47.88" id="print" xmlns="http://www.w3.org/2000/svg"><g data-name="Layer 2"><path d="M56.57 7.42h-9.38V2a2 2 0 00-2-2H13.38a2 2 0 00-2 2v5.42H2a2 2 0 00-2 2v20.95a2 2 0 002 2h9.65v13.51a2 2 0 002 2h31.27a2 2 0 002-2V32.37h9.65a2 2 0 002-2V9.42a2 2 0 00-2-2zM15.38 4h27.81v3.42H15.38zm27.54 39.88H15.65V23.46h27.27v20.42zm11.65-15.51h-7.65v-6.9a2 2 0 00-2-2H13.65a2 2 0 00-2 2v6.9H4V11.42h50.57zM20.4 32.09h17.76a2 2 0 000-4H20.4a2 2 0 000 4zm0 7.16h17.76a2 2 0 000-4H20.4a2 2 0 000 4z" data-name="Layer 1"/></g></symbol><symbol viewBox="0 0 90 65.79" id="scissors" xmlns="http://www.w3.org/2000/svg"><path d="M14.48 25.26a112.16 112.16 0 0117.74 6.47 6.28 6.28 0 00.52 1.18 6.2 6.2 0 00-.52 1.18 112.41 112.41 0 01-17.75 6.47c-4.13 1-12.88 7.86-14 12.07-1.68 6.27 1.19 11.24 7.46 12.92s18.25-5.76 19.93-12c1.15-4.29.65-7.35-2.62-10.29l10.93-6.31C48.56 48.12 85 63.16 90 60L43.11 32.91 90 5.79c-5-3.18-41.44 11.86-53.83 23.06l-10.93-6.3c3.27-2.94 3.77-6 2.62-10.3C26.18 6 14.21-1.46 7.93.25S-1.21 6.92.47 13.19c1.13 4.21 9.88 11 14 12.07zm23.7 5.37a2.28 2.28 0 11-2.28 2.28 2.27 2.27 0 012.26-2.28zM19.39 44.37c4.22 1.13 5.82 3.92 4.7 8.14s-10.94 10.4-15.15 9.28-5.82-3.92-4.7-8.14 10.94-10.39 15.15-9.26zm0-22.93c-4.21 1.12-14-5-15.15-9.26s.48-7 4.7-8.14 14 5.06 15.15 9.27-.48 7-4.7 8.14z"/></symbol><symbol viewBox="0 0 65.79 90" id="scissors-vertical" xmlns="http://www.w3.org/2000/svg"><path d="M40.53 14.48a112.16 112.16 0 01-6.47 17.74 6.28 6.28 0 00-1.18.52 6.2 6.2 0 00-1.18-.52 112.41 112.41 0 01-6.47-17.75c-1-4.13-7.86-12.88-12.07-14C6.89-1.21 1.92 1.66.24 7.93s5.76 18.25 12 19.93c4.29 1.15 7.35.65 10.29-2.62l6.31 10.93C17.67 48.56 2.63 85 5.79 90l27.09-46.89L60 90c3.18-5-11.86-41.44-23.06-53.83l6.3-10.93c2.94 3.27 6 3.77 10.3 2.62 6.25-1.68 13.71-13.65 12-19.93S58.87-1.21 52.6.47c-4.21 1.13-11 9.88-12.07 14zm-5.37 23.7a2.28 2.28 0 11-2.28-2.28 2.27 2.27 0 012.28 2.26zM21.42 19.39c-1.13 4.22-3.92 5.82-8.14 4.7S2.88 13.15 4 8.94s3.92-5.82 8.14-4.7 10.39 10.94 9.26 15.15zm22.93 0c-1.12-4.21 5-14 9.26-15.15s7 .48 8.14 4.7-5.06 14-9.27 15.15-7-.48-8.14-4.7z"/></symbol><symbol viewBox="0 0 1497 220" id="slipper-logo" xmlns="http://www.w3.org/2000/svg"><g data-name="Layer 2"><g data-name="Layer 1"><path d="M0 68v68h142v34H0v50h200V85H57V51h143V0H0zM239 110v110h201v-50H297V0h-58zM479 110v110h58V0h-58zM579 110v110h58v-84h143V0H579zm143-42v17h-85V51h85zM818 110v110h58v-84h143V0H818zm143-42v17h-85V51h85zM1058 25.5V51h143v34h-95v51h93v34h-141v50h201V0h-201zM1298 68v68l30 .2 30.1.3-30.1 26.9-30 26.9V220h59.8l41.3-37.3 41.4-37.4.3 37.4.2 37.3h56V0h-199zm143 0v17h-85V51h85z"/></g></g></symbol></svg>