<svg xmlns="http://www.w3.org/2000/svg" xmlns:xlink="http://www.w3.org/1999/xlink"><symbol viewBox="0 0 84.34 55.47" id="avatar" xmlns="http://www.w3.org/2000/svg"><g data-name="Layer 2"><path d="M0 27.73v27.74h84.34V0H0zm78.23 0v21.63H6.11V6.11h72.12z"/><path d="M18.5 12.93c.46.58 2.4 3.25 4.29 5.89s4.72 6.63 6.32 8.83l6.38 8.89c1.93 2.7 3.65 5 3.8 5.21s.24-6.5.24-14.81V11.86H17.7l.8 1.08zM45.41 26.89c0 8.25.09 15 .24 15s.4-.31.64-.71 2.91-4.14 6-8.34C61 20.69 67.18 12.11 67.18 12s-4.91-.12-10.89-.12H45.41zM68.54 21.16c-1.84 2.58-6.23 8.65-9.75 13.56l-6.41 8.89 9.75.09h9.85c.07 0 .02-6.23.02-13.7l-.09-13.53zM13.18 30.29v13.56H23c7.85 0 9.78-.09 9.57-.4s-2.3-3.13-4.72-6.5C21.61 28.2 13.79 17.38 13.46 17c-.16-.14-.28 5.26-.28 13.29z"/></g></symbol><symbol viewBox="0 0 43.33 33.17" id="house-address" xmlns="http://www.w3.org/2000/svg"><g data-name="Layer 2"><g data-name="Layer 1"><path d="M30.8 33.17a.34.34 0 0 1-.24-.58l2-2a.34.34 0 0 1 .48.48l-2 2a.34.34 0 0 1-.24.1zM34.53 29.45a.34.34 0 0 1-.24-.58l8.46-8.46a.34.34 0 0 1 .48.48l-8.46 8.46a.34.34 0 0 1-.24.1zM34.19 33.17a.34.34 0 0 1-.24-.58l8.8-8.8a.34.34 0 0 1 .48.48l-8.8 8.8a.34.34 0 0 1-.24.1z"/><path d="M34.53 29.45a.34.34 0 0 1-.24-.1L21.76 16.83a.34.34 0 0 1 .48-.48l12.53 12.52a.34.34 0 0 1-.24.58zM32.83 31.14a.34.34 0 0 1-.24-.1L20.41 18.86a.34.34 0 0 1 .48-.48l12.18 12.18a.34.34 0 0 1-.24.58zM34.19 24.37a.34.34 0 0 1-.24-.1l-9.48-9.47a.34.34 0 0 1 .48-.48l9.48 9.48a.34.34 0 0 1-.24.58z"/><path d="M34.19 24.37a.34.34 0 0 1-.24-.58l4.74-4.74a.34.34 0 0 1 .48.48l-4.74 4.74a.34.34 0 0 1-.24.1z"/><path d="M38.93 19.63a.34.34 0 0 1-.24-.1l-9.48-9.48a.34.34 0 0 1 .48-.48l9.48 9.48a.34.34 0 0 1-.24.58z"/><path d="M24.71 14.89a.34.34 0 0 1-.24-.58l4.74-4.74a.34.34 0 0 1 .48.48l-4.74 4.75a.34.34 0 0 1-.24.1zM41.64 16.93a.34.34 0 0 1-.24-.58L42.75 15a.34.34 0 0 1 .48.48l-1.35 1.35a.34.34 0 0 1-.24.1z"/><path d="M41.64 16.93a.34.34 0 0 1-.24-.1l-2.71-2.71a.34.34 0 0 1 .48-.48l2.71 2.71a.34.34 0 0 1-.24.58z"/><path d="M38.93 14.22a.34.34 0 0 1-.24-.58l4.06-4.06a.34.34 0 1 1 .48.48l-4.06 4.06a.34.34 0 0 1-.24.1zM27.42 30.47a.34.34 0 0 1-.24-.1l-8.8-8.8a.34.34 0 1 1 .48-.48l8.8 8.8a.34.34 0 0 1-.24.58z"/><path d="M24.71 33.17a.34.34 0 0 1-.24-.58l2.71-2.71a.34.34 0 0 1 .48.48l-2.71 2.71a.34.34 0 0 1-.24.1zM2.37 19a.34.34 0 0 1-.24-.58l4.06-4.06a.34.34 0 0 1 .48.48l-4.06 4.02a.34.34 0 0 1-.24.1z"/><path d="M11.28 27.86a.34.34 0 0 1-.24-.1l-8.91-8.9a.34.34 0 0 1 .48-.48l8.91 8.91a.34.34 0 0 1-.24.58z"/><path d="M11.28 27.86a.34.34 0 0 1-.24-.58l2.71-2.71a.34.34 0 1 1 .48.48l-2.71 2.71a.34.34 0 0 1-.24.1z"/><path d="M22 33.17a.34.34 0 0 1-.24-.1l-8-8a.34.34 0 0 1 .48-.48l8 8a.34.34 0 0 1-.24.58zM15.91 33.17a.34.34 0 0 1-.24-.58l.68-.68a.34.34 0 0 1 .48.48l-.68.68a.34.34 0 0 1-.24.1z"/><path d="M16.59 32.5a.34.34 0 0 1-.24-.1l-2.71-2.71a.34.34 0 0 1 .48-.48l2.71 2.71a.34.34 0 0 1-.24.58z"/><path d="M10.49 33.17a.34.34 0 0 1-.24-.58l3.39-3.38a.34.34 0 1 1 .48.48l-3.39 3.38a.34.34 0 0 1-.24.1zM8.46 30.47a.34.34 0 0 1-.24-.1l-8.09-8.1a.34.34 0 0 1 .48-.48l8.09 8.1a.34.34 0 0 1-.24.58z"/><path d="M5.75 33.17a.34.34 0 0 1-.24-.58l2.71-2.71a.34.34 0 1 1 .48.48L6 33.08a.34.34 0 0 1-.24.1zM5.08 11.5a.34.34 0 0 1-.24-.1L.13 6.69a.34.34 0 0 1 .48-.48l4.71 4.71a.34.34 0 0 1-.24.58z"/><path d="M.34 16.25a.34.34 0 0 1-.24-.58l4.74-4.74a.34.34 0 0 1 .48.48L.58 16.15a.34.34 0 0 1-.24.1zM34.19 8.12a.34.34 0 0 1-.24-.58l3.38-3.39a.34.34 0 0 1 .48.48L34.43 8a.34.34 0 0 1-.24.1zM24.71 8.12a.34.34 0 0 1-.24-.58l3.39-3.39a.34.34 0 0 1 .48.48L24.95 8a.34.34 0 0 1-.24.1zM38.93 33.17a.34.34 0 0 1-.24-.58l4.06-4.06a.34.34 0 0 1 .48.48l-4.06 4.06a.34.34 0 0 1-.24.1z"/><path d="M37.57 11.51a.34.34 0 0 1-.24-.1L34 8a.34.34 0 0 1 .48-.48l3.38 3.39a.34.34 0 0 1-.24.58z"/><path d="M37.57 11.51a.34.34 0 0 1-.24-.58l5.42-5.42a.34.34 0 0 1 .48.48l-5.42 5.42a.34.34 0 0 1-.24.1z"/><path d="M43 33.17H.37a.34.34 0 0 1-.37-.33V4.4a.34.34 0 0 1 .68 0v28.1h41.97V4.4a.34.34 0 0 1 .68 0v28.44a.34.34 0 0 1-.33.33z"/><path d="M14.56 22.34c-2 0-8.46-9.18-8.46-13.88a8.46 8.46 0 0 1 16.9 0c0 4.7-6.45 13.88-8.44 13.88zm0-21.67a7.79 7.79 0 0 0-7.79 7.79c0 4.54 6.33 13.2 7.79 13.2s7.78-8.66 7.78-13.2A7.79 7.79 0 0 0 14.56.68zM5.08 4.74H.37a.34.34 0 1 1 0-.68h4.71a.34.34 0 1 1 0 .68zM43 4.74H24a.34.34 0 0 1 0-.68h19a.34.34 0 1 1 0 .68z"/><path d="M9.14 9.48a.34.34 0 0 1-.22-.59l5.42-4.74a.34.34 0 1 1 .45.51L9.36 9.39a.34.34 0 0 1-.22.09z"/><path d="M20 9.48a.33.33 0 0 1-.22-.08l-5.45-4.75a.34.34 0 1 1 .45-.51l5.42 4.74a.34.34 0 0 1-.22.59zM10.49 13.54a.34.34 0 0 1-.34-.34V9.14a.34.34 0 0 1 .68 0v4.06a.34.34 0 0 1-.34.34z"/><path d="M18.62 13.54h-8.13a.34.34 0 1 1 0-.68h8.12a.34.34 0 1 1 0 .68z"/><path d="M18.62 13.54a.34.34 0 0 1-.34-.34V9.14a.34.34 0 1 1 .68 0v4.06a.34.34 0 0 1-.34.34zM15.91 13.54a.34.34 0 0 1-.34-.34v-2.71a.34.34 0 1 1 .68 0v2.71a.34.34 0 0 1-.34.34zM17.26 13.54a.34.34 0 0 1-.34-.34v-2.71a.34.34 0 1 1 .68 0v2.71a.34.34 0 0 1-.34.34zM14.56 11.51h-2.71a.34.34 0 0 1-.34-.34v-2a.34.34 0 0 1 .34-.34h2.71a.34.34 0 0 1 .34.34v2a.34.34 0 0 1-.34.34zm-2.37-.68h2V9.48h-2z"/><path d="M17.26 10.83h-1.35a.34.34 0 1 1 0-.68h1.35a.34.34 0 0 1 0 .68z"/></g></g></symbol><symbol viewBox="0 0 98 64" id="logo" xmlns="http://www.w3.org/2000/svg"><path d="M11.606 37.319c0 .702-.162 1.35-.486 1.944s-.81 1.08-1.566 1.458v.054c.378.162.756.323 1.08.54s.594.486.863.756c.216.27.432.648.54.972.108.378.216.756.216 1.242 0 .378-.054.81-.162 1.242s-.323.863-.648 1.296c-.323.432-.756.81-1.242 1.188-.54.378-1.188.648-1.998.863-.216.054-.432.108-.648.108-.216.054-.486.054-.81.108-.27.054-.594.054-.972.054H-.113V33.052h5.616c1.188 0 2.16.108 2.915.378.54.162 1.026.432 1.404.702s.756.594.972.972c.27.323.432.702.594 1.134.162.323.216.702.216 1.08zm-6.048 2.376c.81 0 1.404-.054 1.782-.217.432-.162.756-.432.972-.756.162-.323.27-.702.27-1.08 0-.432-.108-.81-.323-1.134s-.594-.594-1.134-.756c-.216-.054-.486-.108-.756-.162s-.648-.054-1.08-.054H2.86v4.158h2.7zm-2.646 2.43v4.536h1.944c.54 0 .972 0 1.35-.054s.702-.054.972-.162c.432-.108.756-.217 1.026-.378s.486-.323.648-.486c.162-.162.27-.378.378-.648a3.17 3.17 0 0 0 .108-.702c0-.432-.108-.863-.378-1.188s-.648-.594-1.188-.756c-.216-.054-.486-.108-.81-.162s-.702-.054-1.188-.054H2.912zM27.481 37.859c0 1.134-.323 2.052-.918 2.862-.648.756-1.566 1.35-2.862 1.728v.054l4.752 6.642h-3.564l-4.374-6.21h-1.998v6.21h-2.97V33.053h4.914c.81 0 1.566.054 2.269.162s1.296.217 1.782.432c.972.378 1.674.918 2.214 1.62.54.648.756 1.566.756 2.592zm-7.505 2.592c.648 0 1.242-.054 1.728-.108s.863-.162 1.188-.27c.594-.217 1.026-.54 1.242-.918s.323-.81.323-1.35c0-.432-.108-.81-.27-1.134s-.486-.594-.918-.81c-.27-.108-.648-.217-1.08-.27s-.972-.108-1.566-.108h-2.106v4.914h1.458zM32.287 49.145V33.053h2.97v16.092h-2.97zM44.599 36.348c.756 1.134 1.35 1.944 1.62 2.429h.054l1.62-2.429L50.215 33h3.402l-5.616 7.938 5.832 8.208h-3.348l-2.538-3.618c-.594-.863-1.188-1.728-1.728-2.484h-.054c-.54.81-1.134 1.674-1.728 2.484l-2.538 3.618h-3.348l5.832-8.208-5.507-7.884h3.402l2.322 3.294zM63.229 49.145h-2.97V35.483h-5.184v-2.484h13.337v2.484h-5.184v13.662zM85.099 41.099c0 1.242-.162 2.376-.54 3.402-.323 1.026-.863 1.89-1.512 2.646s-1.512 1.296-2.484 1.728c-.972.432-2.106.594-3.348.594s-2.376-.217-3.348-.594c-.972-.432-1.782-.972-2.484-1.728-.648-.756-1.188-1.62-1.512-2.646s-.54-2.16-.54-3.402.162-2.376.54-3.402c.323-1.026.863-1.89 1.512-2.646s1.512-1.296 2.484-1.728c.972-.432 2.106-.594 3.348-.594s2.376.217 3.348.594c.972.432 1.782.972 2.484 1.728.648.756 1.188 1.62 1.512 2.646.378 1.026.54 2.16.54 3.402zm-3.078 0c0-.972-.108-1.836-.378-2.592-.216-.756-.594-1.35-1.026-1.836s-.918-.863-1.512-1.08c-.594-.217-1.242-.378-1.944-.378s-1.35.108-1.944.378c-.594.217-1.08.594-1.512 1.08s-.756 1.08-1.026 1.836a9.057 9.057 0 0 0-.378 2.592c0 .972.108 1.836.378 2.592.216.756.594 1.35 1.026 1.836s.918.863 1.512 1.08c.594.27 1.242.378 1.944.378s1.35-.108 1.944-.378c.594-.27 1.08-.594 1.512-1.08s.756-1.08 1.026-1.836.378-1.62.378-2.592zM90.552 33.053v13.662h7.559v2.429H87.635V33.052h2.915zM44.869 22.199v-13.5h-9.611zM32.936 10.59v12.42h8.856zM47.731 21.929V8.483h9.665zM59.665 10.374V22.74h-8.856z"/><path d="M27.212 3.3v25.217h37.853V3.3H27.212zm35.261 22.517H29.912V6.053h32.507v19.764zM3.182 60.484H2.048v-5.13H.104v-.918h5.021v.918H3.181v5.13zM15.494 59.513h2.97v.918H14.36v-6.047h3.942v.918h-2.809v1.566h2.429v.918h-2.429v1.728zM29.587 55.625c.27.432.486.756.594.918.162-.27.378-.54.594-.918l.863-1.242h1.296l-2.106 2.97 2.214 3.078h-1.188l-.972-1.35c-.216-.323-.432-.648-.648-.918-.216.323-.432.648-.648.918l-.972 1.404h-1.242l2.214-3.078-2.106-2.97h1.296l.81 1.188zM44.761 60.484h-1.134v-5.13h-1.944v-.918h5.021v.918H44.76v5.13zM55.939 60.484v-6.047h1.134v6.047h-1.134zM67.981 54.383v5.13h2.862v.918h-3.942v-6.047h1.08zM81.372 59.513h2.97v.918h-4.104v-6.047h3.942v.918h-2.808v1.566h2.429v.918h-2.429v1.728zM96.87 58.703c0-.162-.054-.27-.108-.378s-.162-.162-.323-.217c-.108-.054-.27-.108-.432-.162s-.323-.054-.486-.108c-.216-.054-.486-.108-.702-.162s-.378-.162-.594-.27c-.162-.108-.27-.27-.378-.486s-.162-.432-.162-.702c0-.323.054-.594.162-.863s.27-.432.432-.594c.216-.162.432-.27.702-.323s.54-.108.863-.108c.323 0 .648.054.972.108s.594.162.863.27v.972c-.323-.108-.594-.217-.918-.27s-.54-.108-.81-.108c-.378 0-.648.054-.863.217-.216.108-.323.323-.323.594 0 .162.054.27.108.378s.162.162.27.27c.108.054.216.108.378.162s.323.054.486.108c.27.054.486.108.756.162s.432.162.648.323.323.27.432.486c.108.217.162.486.162.81s-.054.594-.162.863c-.108.217-.27.432-.54.594-.216.162-.486.27-.81.323s-.648.108-1.026.108c-.323 0-.648-.054-.972-.108s-.594-.162-.81-.27v-.918c.323.108.594.217.863.27s.594.108.863.108c.162 0 .323 0 .54-.054.162-.054.323-.054.432-.162.108-.054.216-.162.323-.27.162-.27.162-.378.162-.594z"/></symbol><symbol viewBox="0 0 40.93 39.29" id="parcel-check" xmlns="http://www.w3.org/2000/svg"><g data-name="Layer 2"><g data-name="Layer 1"><path d="M32.75 34.32a.9.9 0 0 1-.47-.14l-2.51-2.09.89-1.09 2 1.63L36 28.27l1.12.84L33.27 34a.8.8 0 0 1-.47.28zM24 34.41l-3.53 1.67V18.52l6.51-3v4.88a.64.64 0 0 0 .28.6L29 22a.68.68 0 0 0 .33.09.73.73 0 0 0 .56-.28l2-2.37a.83.83 0 0 0 .19-.42v-5.9l5.58-2.69V23a10.25 10.25 0 0 1 1.39.88V9.41v-.19-.09l-.09-.09L19.88.07a.69.69 0 0 0-.6 0l-7.16 3.3-3.76 1.76L.41 8.76.14 9a.16.16 0 0 1 0 .09v19.42a.79.79 0 0 0 .42.65l18.87 8.69h.09a1.05 1.05 0 0 0 .19 0 .28.28 0 0 0 .19 0h.09l4.6-2.14c-.14-.42-.33-.84-.47-1.3zm6.69-15.57l-1.35 1.72-1-.56v-5.11l2.32-1.07v5zM19.56 1.51l17.19 7.9L31.22 12 14 4.06zm-7.2 3.3l17.19 7.9-2.09 1-17.2-7.93 2.09-1zM19 36.08L1.39 28V10.48l17.66 8zm.51-18.77L2.36 9.41l6.28-2.88 17.19 7.9z"/><path d="M33.17 23.77a7.76 7.76 0 1 0 7.76 7.76 7.77 7.77 0 0 0-7.76-7.76zm0 14.13a6.37 6.37 0 1 1 6.37-6.37 6.38 6.38 0 0 1-6.37 6.36zM6.73 28.92v-3l-1.26-.56v3zM8.22 29.62v-3l-.93-.47v3zM4.83 28v-3l-.7-.33v3zM3.52 27.44v-3L2.6 24v3z"/></g></g></symbol><symbol viewBox="0 0 39.28 41.49" id="parcel-geo" xmlns="http://www.w3.org/2000/svg"><g data-name="Layer 2"><g data-name="Layer 1"><path d="M24.1 34.58l-3.55 1.68V18.61l6.54-3v4.9a.64.64 0 0 0 .28.61l1.82 1.07a.67.67 0 0 0 .33.09.73.73 0 0 0 .56-.28l2-2.38a.84.84 0 0 0 .19-.42v-5.96l5.6-2.71v12.56a10.2 10.2 0 0 1 1.4.89V9.46v-.19-.09l-.09-.09L20 .07a.7.7 0 0 0-.61 0l-7.2 3.32-3.78 1.77L.42 8.8.14 9a.16.16 0 0 1 0 .09v19.56a.79.79 0 0 0 .42.65l19 8.73h.09a1 1 0 0 0 .19 0 .28.28 0 0 0 .19 0h.09l4.62-2.15c-.14-.42-.33-.84-.47-1.31zm6.73-15.64l-1.35 1.73-1-.56V15l2.33-1.07zM19.67 1.52l17.27 7.94L31.39 12 14.11 4.09zm-7.24 3.32l17.28 7.94-2.1 1-17.28-7.96zm6.72 31.43L1.41 28.18V10.53l17.75 8.08zm.51-18.87L2.39 9.46l6.3-2.9L26 14.5z"/><path d="M32.74 33.41a3.5 3.5 0 1 1 3.5-3.5 3.53 3.53 0 0 1-3.5 3.5zm0-9.71a6.2 6.2 0 0 0-6.26 6.3c0 4.67 4.39 9.2 6.21 11.53 1.92-2.38 6.21-7 6.21-11.53a6.21 6.21 0 0 0-6.16-6.3z"/></g></g></symbol></svg>